<svg xmlns="http://www.w3.org/2000/svg" version="1.1" xmlns:xlink="http://www.w3.org/1999/xlink" xmlns:svgjs="http://svgjs.com/svgjs" width="1440" height="560" preserveAspectRatio="none" viewBox="0 0 1440 560"><g mask="url(&quot;#SvgjsMask1015&quot;)" fill="none"><rect width="1440" height="560" x="0" y="0" fill="url(#SvgjsLinearGradient1016)"></rect><path d="M1360.62 432.18L1413.15 432.18L1413.15 484.71L1360.62 484.71z" fill="rgba(228, 207, 207, 1)"></path><path d="M746.58 170.46 a17.02 17.02 0 1 0 34.04 0 a17.02 17.02 0 1 0 -34.04 0z" fill="rgba(228, 207, 207, 1)"></path><path d="M766.55 260.77L819.42 260.77L819.42 313.64L766.55 313.64z" fill="rgba(220, 229, 221, 1)"></path><path d="M1271.48 146.7L1302.42 146.7L1302.42 177.64L1271.48 177.64z" fill="rgba(230, 227, 213, 1)"></path><path d="M211.31 291.69a18.85 18.85 0 1 0 17.63 33.33z" fill="rgba(220, 229, 221, 1)"></path><path d="M1227.41 234.53L1238.99 234.53L1238.99 281.36L1227.41 281.36z" fill="rgba(230, 227, 213, 1)"></path><path d="M1371.56 372.86a12.47 12.47 0 1 0-24.34-5.46z" fill="rgba(220, 229, 221, 1)"></path><path d="M1202.89 449.38L1240.13 449.38L1240.13 486.62L1202.89 486.62z" stroke="rgba(228, 207, 207, 1)"></path><path d="M254.12 152.42L302.84 152.42L302.84 159.84L254.12 159.84z" stroke="rgba(220, 229, 221, 1)"></path><path d="M116.09 119.19L170.72 119.19L170.72 164.68L116.09 164.68z" fill="rgba(220, 229, 221, 1)"></path><path d="M1261.9 111.78L1304.71 111.78L1304.71 154.59L1261.9 154.59z" fill="rgba(220, 229, 221, 1)"></path><path d="M835.47 461.21L838.07 461.21L838.07 477.24L835.47 477.24z" fill="rgba(230, 227, 213, 1)"></path><path d="M574.09 283.41 a40.07 40.07 0 1 0 80.14 0 a40.07 40.07 0 1 0 -80.14 0z" fill="rgba(228, 207, 207, 1)"></path><path d="M1094.19 487.84 a11.33 11.33 0 1 0 22.66 0 a11.33 11.33 0 1 0 -22.66 0z" stroke="rgba(230, 227, 213, 1)"></path><path d="M574.82 390.43L604.71 390.43L604.71 392.9L574.82 392.9z" fill="rgba(230, 227, 213, 1)"></path><path d="M854.42 229.33L889.12 229.33L889.12 264.03L854.42 264.03z" fill="rgba(228, 207, 207, 1)"></path><path d="M799.05 521.86a42.87 42.87 0 1 0 53.84-66.73z" fill="rgba(230, 227, 213, 1)"></path><path d="M344.62 450.52L349.35 450.52L349.35 455.25L344.62 455.25z" fill="rgba(220, 229, 221, 1)"></path><path d="M409.38 287.12L420.09 287.12L420.09 297.83L409.38 297.83z" fill="rgba(220, 229, 221, 1)"></path><path d="M1128.87 169.97L1165.48 169.97L1165.48 220.62L1128.87 220.62z" stroke="rgba(220, 229, 221, 1)"></path><path d="M1248.63 305.67L1266.99 305.67L1266.99 324.03L1248.63 324.03z" stroke="rgba(228, 207, 207, 1)"></path><path d="M659.72 478.82 a11.83 11.83 0 1 0 23.66 0 a11.83 11.83 0 1 0 -23.66 0z" fill="rgba(228, 207, 207, 1)"></path><path d="M506.56 399.4L517.59 399.4L517.59 410.43L506.56 410.43z" stroke="rgba(228, 207, 207, 1)"></path><path d="M356.51 503.97L363.27 503.97L363.27 506.62L356.51 506.62z" stroke="rgba(220, 229, 221, 1)"></path><path d="M1208.31 553.2 a46.64 46.64 0 1 0 93.28 0 a46.64 46.64 0 1 0 -93.28 0z" fill="rgba(220, 229, 221, 1)"></path><path d="M435.01 54.64 a49.5 49.5 0 1 0 99 0 a49.5 49.5 0 1 0 -99 0z" stroke="rgba(228, 207, 207, 1)"></path><path d="M755.22 211.29a50.21 50.21 0 1 0-79.11 61.85z" stroke="rgba(230, 227, 213, 1)"></path><path d="M1163.75 88.82L1167.87 88.82L1167.87 115.86L1163.75 115.86z" stroke="rgba(228, 207, 207, 1)"></path><path d="M437.31 45.68a7.3 7.3 0 1 0 14.6 0.26z" stroke="rgba(228, 207, 207, 1)"></path><path d="M217.51 444.94L246.05 444.94L246.05 473.48L217.51 473.48z" stroke="rgba(230, 227, 213, 1)"></path><path d="M287.42 397.6a36.86 36.86 0 1 0-68.24 27.88z" stroke="rgba(230, 227, 213, 1)"></path><path d="M89.86 304.93L96.82 304.93L96.82 342.44L89.86 342.44z" fill="rgba(230, 227, 213, 1)"></path><path d="M711.15 316.15L749.99 316.15L749.99 327.41L711.15 327.41z" fill="rgba(228, 207, 207, 1)"></path></g><defs><mask id="SvgjsMask1015"><rect width="1440" height="560" fill="#ffffff"></rect></mask><linearGradient x1="15.28%" y1="-39.29%" x2="84.72%" y2="139.29%" gradientUnits="userSpaceOnUse" id="SvgjsLinearGradient1016"><stop stop-color="#0e2a47" offset="0"></stop><stop stop-color="rgba(142, 0, 158, 1)" offset="1"></stop></linearGradient></defs></svg>