<svg xmlns="http://www.w3.org/2000/svg" version="1.1" xmlns:xlink="http://www.w3.org/1999/xlink" xmlns:svgjs="http://svgjs.com/svgjs" width="1440" height="560" preserveAspectRatio="none" viewBox="0 0 1440 560"><g mask="url(&quot;#SvgjsMask1184&quot;)" fill="none"><rect width="1440" height="560" x="0" y="0" fill="url(#SvgjsLinearGradient1185)"></rect><path d="M1379.24 521.83L1412.57 521.83L1412.57 555.16L1379.24 555.16z" fill="rgba(250, 244, 249, 1)"></path><path d="M1392.25 340.68 a20.63 20.63 0 1 0 41.26 0 a20.63 20.63 0 1 0 -41.26 0z" stroke="rgba(250, 244, 249, 1)"></path><path d="M201.25 149.46L217.49 149.46L217.49 189.14L201.25 189.14z" stroke="rgba(250, 244, 249, 1)"></path><path d="M266.28 242.04a27.02 27.02 0 1 0-53.5-7.62z" fill="rgba(250, 244, 249, 1)"></path><path d="M41.52 328.31 a13.58 13.58 0 1 0 27.16 0 a13.58 13.58 0 1 0 -27.16 0z" stroke="rgba(221, 204, 226, 1)"></path><path d="M325.66 444.32a14.3 14.3 0 1 0 5.2-28.12z" stroke="rgba(221, 204, 226, 1)"></path><path d="M683.47 513.68 a4.84 4.84 0 1 0 9.68 0 a4.84 4.84 0 1 0 -9.68 0z" stroke="rgba(250, 244, 249, 1)"></path><path d="M522.5 356.41a38.1 38.1 0 1 0 61.24 45.36z" stroke="rgba(221, 204, 226, 1)"></path><path d="M725.5 195.97a37.46 37.46 0 1 0-30.65-68.36z" stroke="rgba(221, 204, 226, 1)"></path><path d="M354.54 484.81L405.77 484.81L405.77 536.04L354.54 536.04z" stroke="rgba(250, 244, 249, 1)"></path><path d="M1296.64 165.95L1303.4 165.95L1303.4 172.71L1296.64 172.71z" fill="rgba(250, 244, 249, 1)"></path><path d="M882.31 82.83 a9.95 9.95 0 1 0 19.9 0 a9.95 9.95 0 1 0 -19.9 0z" stroke="rgba(221, 204, 226, 1)"></path><path d="M411.92 245.34 a50.57 50.57 0 1 0 101.14 0 a50.57 50.57 0 1 0 -101.14 0z" stroke="rgba(221, 204, 226, 1)"></path><path d="M1300.36 498.3L1322.37 498.3L1322.37 520.31L1300.36 520.31z" fill="rgba(221, 204, 226, 1)"></path><path d="M270.71 27.12a30.59 30.59 0 1 0-25.28 55.71z" fill="rgba(250, 244, 249, 1)"></path><path d="M168.97 396.34L187.51 396.34L187.51 413.9L168.97 413.9z" stroke="rgba(250, 244, 249, 1)"></path><path d="M1319.92 92.59 a27.88 27.88 0 1 0 55.76 0 a27.88 27.88 0 1 0 -55.76 0z" fill="rgba(221, 204, 226, 1)"></path><path d="M310.87 415.11a0.49 0.49 0 1 0 0.2-0.96z" stroke="rgba(221, 204, 226, 1)"></path><path d="M510.49 210.8a17.53 17.53 0 1 0 21.5-27.7z" stroke="rgba(221, 204, 226, 1)"></path><path d="M806.67 477.52 a19.88 19.88 0 1 0 39.76 0 a19.88 19.88 0 1 0 -39.76 0z" stroke="rgba(221, 204, 226, 1)"></path><path d="M763.28 470.91L815.49 470.91L815.49 518.39L763.28 518.39z" stroke="rgba(221, 204, 226, 1)"></path><path d="M872 224.33L906.68 224.33L906.68 259.01L872 259.01z" stroke="rgba(221, 204, 226, 1)"></path><path d="M811.81 339.85 a46.89 46.89 0 1 0 93.78 0 a46.89 46.89 0 1 0 -93.78 0z" stroke="rgba(221, 204, 226, 1)"></path><path d="M98.52 513.97 a5.89 5.89 0 1 0 11.78 0 a5.89 5.89 0 1 0 -11.78 0z" fill="rgba(250, 244, 249, 1)"></path><path d="M727.42 237.01L744.14 237.01L744.14 253.73L727.42 253.73z" fill="rgba(221, 204, 226, 1)"></path><path d="M1270.89 294.12 a47.84 47.84 0 1 0 95.68 0 a47.84 47.84 0 1 0 -95.68 0z" stroke="rgba(250, 244, 249, 1)"></path><path d="M614.31 278.88L618.1 278.88L618.1 312.24L614.31 312.24z" fill="rgba(221, 204, 226, 1)"></path><path d="M1093.32 394.2L1112.21 394.2L1112.21 413.09L1093.32 413.09z" stroke="rgba(250, 244, 249, 1)"></path><path d="M1027.82 515.75a27.56 27.56 0 1 0 45.24-31.48z" stroke="rgba(221, 204, 226, 1)"></path><path d="M1200.07 132.03a20.96 20.96 0 1 0-23.06-35.01z" fill="rgba(250, 244, 249, 1)"></path><path d="M934.02 501.65 a46.68 46.68 0 1 0 93.36 0 a46.68 46.68 0 1 0 -93.36 0z" stroke="rgba(250, 244, 249, 1)"></path><path d="M1305.07 528.1 a15.08 15.08 0 1 0 30.16 0 a15.08 15.08 0 1 0 -30.16 0z" fill="rgba(221, 204, 226, 1)"></path><path d="M678 342.2 a32.15 32.15 0 1 0 64.3 0 a32.15 32.15 0 1 0 -64.3 0z" stroke="rgba(250, 244, 249, 1)"></path></g><defs><mask id="SvgjsMask1184"><rect width="1440" height="560" fill="#ffffff"></rect></mask><linearGradient x1="84.72%" y1="-39.29%" x2="15.28%" y2="139.29%" gradientUnits="userSpaceOnUse" id="SvgjsLinearGradient1185"><stop stop-color="rgba(255, 255, 255, 1)" offset="0.18"></stop><stop stop-color="rgba(255, 255, 255, 1)" offset="0.76"></stop></linearGradient></defs></svg>