<svg xmlns="http://www.w3.org/2000/svg" version="1.1" xmlns:xlink="http://www.w3.org/1999/xlink" xmlns:svgjs="http://svgjs.com/svgjs" width="1440" height="560" preserveAspectRatio="none" viewBox="0 0 1440 560"><g mask="url(&quot;#SvgjsMask1186&quot;)" fill="none"><rect width="1440" height="560" x="0" y="0" fill="url(#SvgjsLinearGradient1187)"></rect><path d="M171 533.95L215.45 533.95L215.45 571.19L171 571.19z" stroke="rgba(250, 244, 249, 1)"></path><path d="M703.44 11.7L721.65 11.7L721.65 44.36L703.44 44.36z" stroke="rgba(250, 244, 249, 1)"></path><path d="M1267.74 145.18a40.84 40.84 0 1 0-67.35-46.21z" fill="rgba(250, 244, 249, 1)"></path><path d="M776.79 535.8L826.61 535.8L826.61 585.62L776.79 585.62z" fill="rgba(250, 244, 249, 1)"></path><path d="M1076.94 466.06 a37.19 37.19 0 1 0 74.38 0 a37.19 37.19 0 1 0 -74.38 0z" fill="rgba(250, 244, 249, 1)"></path><path d="M852.23 557.78a11.93 11.93 0 1 0 9.1-22.05z" stroke="rgba(250, 244, 249, 1)"></path><path d="M653.98 175.76L658.53 175.76L658.53 180.31L653.98 180.31z" stroke="rgba(250, 244, 249, 1)"></path><path d="M455.33 140.75L494.36 140.75L494.36 179.69L455.33 179.69z" stroke="rgba(250, 244, 249, 1)"></path><path d="M114.63 44.75L137.16 44.75L137.16 82.98L114.63 82.98z" stroke="rgba(250, 244, 249, 1)"></path><path d="M462.5 22.94L499.59 22.94L499.59 70.23L462.5 70.23z" stroke="rgba(250, 244, 249, 1)"></path><path d="M1268.74 299.33L1291.89 299.33L1291.89 351.11L1268.74 351.11z" stroke="rgba(250, 244, 249, 1)"></path><path d="M1210.81 76.02 a18.05 18.05 0 1 0 36.1 0 a18.05 18.05 0 1 0 -36.1 0z" stroke="rgba(250, 244, 249, 1)"></path><path d="M305.43 448.38a29.77 29.77 0 1 0-42.9 41.29z" stroke="rgba(250, 244, 249, 1)"></path><path d="M311.52 260.53L336.43 260.53L336.43 299.3L311.52 299.3z" stroke="rgba(250, 244, 249, 1)"></path><path d="M776.73 506.01a41.66 41.66 0 1 0-67.26-49.19z" stroke="rgba(250, 244, 249, 1)"></path><path d="M682.94 236.41L711.05 236.41L711.05 282.09L682.94 282.09z" fill="rgba(250, 244, 249, 1)"></path><path d="M238.13 9.7a16.33 16.33 0 1 0 32.36-4.47z" stroke="rgba(250, 244, 249, 1)"></path><path d="M1079.04 88.47a29.06 29.06 0 1 0-51.12 27.65z" fill="rgba(250, 244, 249, 1)"></path><path d="M466.38 298.91a22.04 22.04 0 1 0 20.44-39.05z" stroke="rgba(250, 244, 249, 1)"></path><path d="M1220.44 305.26a26.18 26.18 0 1 0-15.1 50.13z" fill="rgba(250, 244, 249, 1)"></path><path d="M858.74 89.66 a24.41 24.41 0 1 0 48.82 0 a24.41 24.41 0 1 0 -48.82 0z" stroke="rgba(250, 244, 249, 1)"></path><path d="M359.27 546.55a10.29 10.29 0 1 0 16.47 12.34z" stroke="rgba(250, 244, 249, 1)"></path><path d="M164.4 26.92 a13.35 13.35 0 1 0 26.7 0 a13.35 13.35 0 1 0 -26.7 0z" stroke="rgba(250, 244, 249, 1)"></path><path d="M412.82 47.13L446.63 47.13L446.63 80.94L412.82 80.94z" fill="rgba(250, 244, 249, 1)"></path><path d="M280.87 417.93L331.58 417.93L331.58 468.64L280.87 468.64z" fill="rgba(250, 244, 249, 1)"></path><path d="M1270.07 99.9L1310.63 99.9L1310.63 140.46L1270.07 140.46z" stroke="rgba(250, 244, 249, 1)"></path><path d="M1423.94 22.79L1465.76 22.79L1465.76 64.61L1423.94 64.61z" fill="rgba(250, 244, 249, 1)"></path><path d="M584.72 34.25L597.58 34.25L597.58 64.74L584.72 64.74z" fill="rgba(250, 244, 249, 1)"></path><path d="M704.21 148.24L708.15 148.24L708.15 159.3L704.21 159.3z" stroke="rgba(250, 244, 249, 1)"></path><path d="M593.7 138.66a3.58 3.58 0 1 0 5.3 4.8z" fill="rgba(250, 244, 249, 1)"></path><path d="M1313.39 433.36 a34.6 34.6 0 1 0 69.2 0 a34.6 34.6 0 1 0 -69.2 0z" stroke="rgba(250, 244, 249, 1)"></path><path d="M614.57 271.66a25.23 25.23 0 1 0 40.3 30.36z" fill="rgba(250, 244, 249, 1)"></path><path d="M984.81 64.72L1017.07 64.72L1017.07 96.98L984.81 96.98z" fill="rgba(250, 244, 249, 1)"></path></g><defs><mask id="SvgjsMask1186"><rect width="1440" height="560" fill="#ffffff"></rect></mask><linearGradient x1="84.72%" y1="-39.29%" x2="15.28%" y2="139.29%" gradientUnits="userSpaceOnUse" id="SvgjsLinearGradient1187"><stop stop-color="rgba(255, 255, 255, 1)" offset="0.18"></stop><stop stop-color="rgba(255, 255, 255, 1)" offset="0.76"></stop></linearGradient></defs></svg>